<svg width="24" height="94" viewBox="0 0 24 94" fill="none" xmlns="http://www.w3.org/2000/svg">
<path d="M10.9393 93.0607C11.5251 93.6464 12.4749 93.6464 13.0607 93.0607L22.6066 83.5147C23.1924 82.9289 23.1924 81.9792 22.6066 81.3934C22.0208 80.8076 21.0711 80.8076 20.4853 81.3934L12 89.8787L3.51472 81.3934C2.92893 80.8076 1.97919 80.8076 1.3934 81.3934C0.807612 81.9792 0.807612 82.9289 1.3934 83.5147L10.9393 93.0607ZM13.5 2C13.5 1.17157 12.8284 0.5 12 0.5C11.1716 0.5 10.5 1.17157 10.5 2L13.5 2ZM13.5 92L13.5 2L10.5 2L10.5 92L13.5 92Z" fill="#3F2D1A"/>
</svg>
