<svg width="117" height="82" viewBox="0 0 117 82" fill="none" xmlns="http://www.w3.org/2000/svg">
<g id="Group 36">
<g id="Rectangle 25" filter="url(#filter0_d_209_106)">
<path d="M15 24C15 18.4772 19.4772 14 25 14H100C102.761 14 105 16.2386 105 19V56C105 61.5228 100.523 66 95 66H20C17.2386 66 15 63.7614 15 61V24Z" fill="white"/>
</g>
<path id="Union" fill-rule="evenodd" clip-rule="evenodd" d="M73.8701 25.5858C73.0891 24.8047 71.8227 24.8047 71.0417 25.5858L59.7279 36.8996L48.4142 25.5859C47.6332 24.8049 46.3668 24.8049 45.5858 25.5859C44.8047 26.367 44.8047 27.6333 45.5858 28.4144L56.8994 39.728L45.5858 51.0416C44.8048 51.8227 44.8048 53.089 45.5858 53.8701C46.3669 54.6511 47.6332 54.6511 48.4143 53.8701L59.7279 42.5565L71.0416 53.8702C71.8227 54.6513 73.089 54.6513 73.8701 53.8702C74.6511 53.0892 74.6511 51.8228 73.8701 51.0418L62.5563 39.728L73.8701 28.4142C74.6512 27.6332 74.6512 26.3668 73.8701 25.5858Z" fill="#676767"/>
</g>
<defs>
<filter id="filter0_d_209_106" x="0" y="0" width="120" height="82" filterUnits="userSpaceOnUse" color-interpolation-filters="sRGB">
<feFlood flood-opacity="0" result="BackgroundImageFix"/>
<feColorMatrix in="SourceAlpha" type="matrix" values="0 0 0 0 0 0 0 0 0 0 0 0 0 0 0 0 0 0 127 0" result="hardAlpha"/>
<feOffset dy="1"/>
<feGaussianBlur stdDeviation="7.5"/>
<feComposite in2="hardAlpha" operator="out"/>
<feColorMatrix type="matrix" values="0 0 0 0 0 0 0 0 0 0 0 0 0 0 0 0 0 0 0.1 0"/>
<feBlend mode="normal" in2="BackgroundImageFix" result="effect1_dropShadow_209_106"/>
<feBlend mode="normal" in="SourceGraphic" in2="effect1_dropShadow_209_106" result="shape"/>
</filter>
</defs>
</svg>
