<svg width="30" height="30" viewBox="0 0 30 30" fill="none" xmlns="http://www.w3.org/2000/svg">
<path fill-rule="evenodd" clip-rule="evenodd" d="M28.8701 0.585786C28.0891 -0.195262 26.8227 -0.195262 26.0417 0.585787L14.7279 11.8996L3.41421 0.585938C2.63317 -0.195111 1.36684 -0.195111 0.585787 0.585938C-0.195261 1.36699 -0.195261 2.63332 0.585787 3.41437L11.8994 14.728L0.585843 26.0416C-0.195206 26.8227 -0.195206 28.089 0.585843 28.8701C1.36689 29.6511 2.63322 29.6511 3.41427 28.8701L14.7279 17.5565L26.0416 28.8702C26.8227 29.6513 28.089 29.6513 28.8701 28.8702C29.6511 28.0892 29.6511 26.8228 28.8701 26.0418L17.5563 14.728L28.8701 3.41421C29.6512 2.63316 29.6512 1.36683 28.8701 0.585786Z" fill="white"/>
</svg>
