<svg width="24" height="24" viewBox="0 0 24 24" fill="none" xmlns="http://www.w3.org/2000/svg">
<path fill-rule="evenodd" clip-rule="evenodd" d="M0 1.2C0 0.537258 0.537259 0 1.2 0H22.8C23.0485 0 23.2794 0.0755519 23.4709 0.204941C23.7901 0.42059 24 0.785786 24 1.2L24 1.28118C24.0001 1.2917 24.0001 1.30221 24 1.31273V22.8C24 23.4627 23.4627 24 22.8 24C22.1373 24 21.6 23.4627 21.6 22.8V4.19411L2.23392 23.5602C1.76529 24.0288 1.00549 24.0288 0.536865 23.5602C0.0682356 23.0916 0.0682358 22.3318 0.536865 21.8631L20 2.4H1.2C0.537258 2.4 0 1.86274 0 1.2Z" fill="#3F2D1A"/>
</svg>
