<svg width="89" height="55" viewBox="0 0 89 55" fill="none" xmlns="http://www.w3.org/2000/svg">
<path d="M56.3994 19.3752C56.3994 20.2172 56.096 20.8989 55.4894 21.4202C54.8828 21.9214 54.0895 22.1721 53.1096 22.1721H51.6397C50.6598 22.1721 49.8665 21.9214 49.2599 21.4202C48.6533 20.8989 48.35 20.2172 48.35 19.3752V13.0897H51.6747V19.2248C51.6747 19.3251 51.733 19.3752 51.8497 19.3752H52.8996C53.0163 19.3752 53.0746 19.3251 53.0746 19.2248V3.79688H51.6747L51.9547 1H56.3994V19.3752Z" fill="#3F2D1A"/>
<path d="M60.7576 22.0518H57.4329L59.3227 3.79688H58.6928L59.0428 1H65.4473L67.6171 22.0518H64.2923L63.9074 18.4429H61.1426L60.7576 22.0518ZM61.4226 15.646H63.6274L62.5425 5.18028L61.4226 15.646Z" fill="#3F2D1A"/>
<path d="M68.3012 3.79688L68.6512 1H74.1807C75.1607 1 75.9539 1.26064 76.5606 1.78192C77.1672 2.28315 77.4705 2.95481 77.4705 3.79688V13.21C77.4705 13.6511 77.3655 14.0521 77.1555 14.413C76.9455 14.7538 76.6655 15.0445 76.3156 15.2851L78.5554 22.0518H75.1957L73.2008 16.0069H72.1509V22.0518H68.8261V3.79688H68.3012ZM73.9708 3.79688H72.1509V13.21H73.9708C74.0874 13.21 74.1457 13.1599 74.1457 13.0596V3.94725C74.1457 3.847 74.0874 3.79688 73.9708 3.79688Z" fill="#3F2D1A"/>
<path d="M51.8497 31.3872V40.4695H53.8446V31.3872H57.1693V52.439H53.8446V43.2664H51.8497V52.439H48.525V34.1841H48L48.35 31.3872H51.8497Z" fill="#3F2D1A"/>
<path d="M67.8391 49.7624C67.8391 50.6045 67.5358 51.2861 66.9292 51.8074C66.3226 52.3086 65.5293 52.5593 64.5494 52.5593H62.0296C61.0496 52.5593 60.2564 52.3086 59.6497 51.8074C59.0431 51.2861 58.7398 50.6045 58.7398 49.7624V34.0638C58.7398 33.2217 59.0431 32.5501 59.6497 32.0488C60.2564 31.5276 61.0496 31.2669 62.0296 31.2669H64.5494C65.5293 31.2669 66.3226 31.5276 66.9292 32.0488C67.5358 32.5501 67.8391 33.2217 67.8391 34.0638V49.7624ZM62.2395 34.0638C62.1229 34.0638 62.0646 34.1139 62.0646 34.2142V49.612C62.0646 49.7123 62.1229 49.7624 62.2395 49.7624H64.3394C64.456 49.7624 64.5144 49.7123 64.5144 49.612V34.2142C64.5144 34.1139 64.456 34.0638 64.3394 34.0638H62.2395Z" fill="#3F2D1A"/>
<path d="M72.5569 46.4242V49.612C72.5569 49.7123 72.6152 49.7624 72.7319 49.7624H74.1318C74.2484 49.7624 74.3068 49.7123 74.3068 49.612V44.1987L71.542 43.1461C71.332 43.086 71.0404 42.9857 70.6671 42.8454C70.2938 42.685 69.9554 42.4544 69.6521 42.1537C69.3722 41.8529 69.2322 41.4419 69.2322 40.9206V34.0638C69.2322 33.2217 69.5355 32.5501 70.1421 32.0488C70.7487 31.5276 71.542 31.2669 72.5219 31.2669H74.3418C75.3217 31.2669 76.115 31.5276 76.7216 32.0488C77.3282 32.5501 77.6315 33.2217 77.6315 34.0638V38.5147L74.3068 38.2741V34.2142C74.3068 34.1139 74.2484 34.0638 74.1318 34.0638H72.7319C72.6152 34.0638 72.5569 34.1139 72.5569 34.2142V40.4996L75.3217 41.5522C75.5317 41.6324 75.8233 41.7427 76.1966 41.883C76.5699 42.0234 76.8966 42.2439 77.1766 42.5446C77.4799 42.8454 77.6315 43.2564 77.6315 43.7777V49.7624C77.6315 50.6045 77.3282 51.2861 76.7216 51.8074C76.115 52.3086 75.3217 52.5593 74.3418 52.5593H72.5219C71.542 52.5593 70.7487 52.3086 70.1421 51.8074C69.5355 51.2861 69.2322 50.6045 69.2322 49.7624V46.4242H72.5569Z" fill="#3F2D1A"/>
<path d="M78.6992 34.1841V31.3872H88.3235V34.1841H85.1737V52.439H81.849V34.1841H78.6992Z" fill="#3F2D1A"/>
<rect x="34" y="27.3416" width="3.64555" height="27.3417" fill="#FAFF00"/>
<rect x="34" width="3.64555" height="27.3417" fill="#0038FF"/>
<g clip-path="url(#clip0_63_470)">
<path fill-rule="evenodd" clip-rule="evenodd" d="M13.3063 6.69916C11.6981 8.29743 11.676 10.2991 11.676 10.6679C11.676 12.7881 11.9845 16.5546 11.9845 20.6766C11.9845 27.1296 8.53311 31.4227 8.53311 31.4227C8.53311 31.4227 8.47433 31.5281 7.76937 31.5281C7.0644 31.5281 5.53697 31.0145 5.53697 29.5001C5.53697 27.9855 7.40215 27.5642 7.75463 27.5642C8.10715 27.5642 8.28336 27.6168 8.28336 27.6168C8.28336 27.6168 7.93091 24.8512 7.13782 18.609C5.59569 11.9322 0 9.60122 0 9.60122V38.4815H7.46096C7.46096 38.4815 8.00439 42.5508 11.9845 45.1452C11.9845 45.1452 13.2475 46.1197 13.3063 46.4357C13.3651 46.1197 14.6281 45.1452 14.6281 45.1452C18.6082 42.5509 19.1516 38.4815 19.1516 38.4815H26.6126V9.60122C26.6126 9.60122 21.0169 11.9322 19.4747 18.609C18.6816 24.8513 18.3292 27.6168 18.3292 27.6168C18.3292 27.6168 18.5054 27.5642 18.8579 27.5642C19.2104 27.5642 21.0756 27.9856 21.0756 29.5001C21.0756 31.0146 19.5481 31.5282 18.8432 31.5282C18.1382 31.5282 18.0794 31.4228 18.0794 31.4228C18.0794 31.4228 14.6281 27.1296 14.6281 20.6767C14.6281 16.5546 14.9365 12.7882 14.9365 10.6679C14.9365 10.2992 14.9145 8.29746 13.3063 6.69916ZM24.3507 13.8549C24.3507 13.8549 22.3241 16.12 21.7365 18.7802C21.4134 21.2297 20.7672 25.997 20.7672 25.997C20.7672 25.997 22.7059 26.7345 23.1465 28.5518C23.5283 28.5518 24.3507 28.5518 24.3507 28.5518V13.8549ZM18.946 33.5561C19.416 33.5561 22.5149 33.148 23.1465 30.5535H24.3507V36.5324H19.416C19.416 36.5324 19.416 34.8994 18.946 33.5561ZM17.1102 36.5061H14.4225C14.4225 36.5061 14.5092 34.3751 16.7577 34.0566C16.9486 34.6097 17.1102 35.2814 17.1102 36.5061ZM14.4518 38.4815H16.743C16.743 38.4815 16.4933 40.8651 14.4518 42.5639C14.4518 41.4841 14.4518 38.4815 14.4518 38.4815ZM2.2618 13.8548C2.2618 13.8548 4.28848 16.1199 4.87602 18.7802C5.19913 21.2297 5.84531 25.997 5.84531 25.997C5.84531 25.997 3.90669 26.7344 3.46609 28.5518C3.08423 28.5518 2.2618 28.5518 2.2618 28.5518V13.8548ZM7.66654 33.5561C7.19657 33.5561 4.09763 33.148 3.46609 30.5535H2.2618V36.5324H7.19657C7.19657 36.5324 7.19657 34.8994 7.66654 33.5561ZM9.50234 36.5061H12.19C12.19 36.5061 12.1033 34.375 9.85486 34.0566C9.66398 34.6097 9.50234 35.2814 9.50234 36.5061ZM12.1607 38.4815H9.86956C9.86956 38.4815 10.1193 40.8651 12.1607 42.5639C12.1607 41.4841 12.1607 38.4815 12.1607 38.4815ZM13.3063 26.7082C13.3063 26.7082 12.3223 29.9741 10.7508 32.1075C11.3382 32.4499 13.3063 33.6484 13.3063 33.6484C13.3063 33.6484 15.2744 32.4499 15.8618 32.1075C14.2902 29.9741 13.3063 26.7082 13.3063 26.7082Z" fill="#3F2D1A"/>
</g>
<defs>
<clipPath id="clip0_63_470">
<rect width="26.6126" height="39.7365" fill="white" transform="translate(0 6.69916)"/>
</clipPath>
</defs>
</svg>
